<svg id="Capa_1" enable-background="new 0 0 512 512" height="512" viewBox="0 0 512 512" width="512" xmlns="http://www.w3.org/2000/svg"><g><g><g><g><path d="m363.765 190.404c-114.576 75.501-128.736 137.18-318.018 233.364-9.755 4.957-6.173 19.674 4.769 19.608 87.295-.528 289.647-20.226 398.832-181.539z" fill="#fca62f"/><g fill="#f98824"><path d="m324.713 218.363c-15.83 82.748-58.969 150.027-107.058 201.956-39.079 11.07-76.629 17.02-108.848 20.09 14.31-26.699 25.24-50.379 34.129-72.179 85.989-56.109 119.228-101.268 181.777-149.867z"/><path d="m449.346 261.84c-9.429 13.927-19.545 26.798-30.229 38.696-8.546-4.572-16.966-12.826-22.637-27.384-.565-1.439-1.031-2.876-1.44-4.314-11.093 6.516-22.844 11.217-34.44 12.186-3.878.326-7.296-2.724-7.415-6.616-.346-11.634 2.998-23.826 8.21-35.6-1.462-.238-2.955-.537-4.445-.936-15.944-4.211-25.251-12.258-30.661-20.72 11.359-8.773 23.694-17.657 37.479-26.743z"/><path d="m449.346 261.84c-109.181 161.309-311.537 181.01-398.83 181.537-10.941.071-14.526-14.655-4.77-19.613 2.633-1.338 5.239-2.67 7.81-3.999 96.847-4.792 271.048-34.715 369.925-179.516z"/></g></g><g><g><path d="m454.407 269.691c-6.706-6.366-7.775-16.604-1.619-23.502l6.662-7.464c18.101-20.281 16.334-51.396-3.947-69.498-20.281-18.101-51.396-16.334-69.498 3.947l-6.662 7.464c-6.157 6.898-16.45 6.995-23.534 1.053-4.877-4.091-12.301.64-10.409 6.811 3.364 10.972 11.96 23.997 33.323 29.641 1.396.369 2.781.653 4.155.872-4.869 10.979-7.984 22.354-7.659 33.204.109 3.629 3.298 6.475 6.915 6.172 10.817-.905 21.766-5.288 32.123-11.369.374 1.341.813 2.684 1.337 4.03 8.026 20.587 21.94 27.653 33.223 29.753 6.347 1.181 10.207-6.731 5.59-11.114z" fill="#a3e440"/><path d="m448.818 280.806c-5.015-.939-10.547-2.852-15.853-6.494 3.263-2.082 4.351-7.091 1.013-10.266-6.708-6.367-7.776-16.604-1.62-23.496l6.664-7.466c18.101-20.285 16.335-51.398-3.95-69.499-2.543-2.273-5.261-4.229-8.105-5.88-.535-.311-1.075-.614-1.623-.901 7.627.4 15.199 2.568 22.048 6.544 2.844 1.651 5.561 3.606 8.112 5.884 20.278 18.097 22.044 49.21 3.943 69.495l-6.659 7.458c-6.154 6.903-5.085 17.141 1.623 23.508 4.609 4.383.754 12.293-5.593 11.113z" fill="#8dc637"/></g></g><g><path d="m422.933 175.425 21.436 7.812c12.508-25.78 16.813-50.876 18.278-63.842.559-4.947-3.107-9.361-8.073-9.706l-16.1-1.117c-5.552-.385-10.095 4.46-9.247 9.96 3.776 24.494-2.46 46.432-6.294 56.893z" fill="#a3e440"/></g></g><g><g><path d="m206.718 126.949c-61.187 122.818-42.469 183.27-157.882 361.48-5.948 9.185 4.538 20.114 13.968 14.564 75.232-44.282 240.347-162.904 253.791-357.23z" fill="#fb4a59"/><g fill="#f82f40"><path d="m316.596 145.766c-1.163 16.778-3.45 32.989-6.717 48.642-9.686.336-21.112-2.575-33.325-12.319-1.211-.961-2.335-1.97-3.411-3.008-6.323 11.204-14.126 21.169-23.668 27.829-3.19 2.229-7.678 1.307-9.734-1.999-6.14-9.888-9.369-22.111-10.772-34.911-1.384.528-2.825 1.019-4.315 1.422-15.903 4.363-27.992 2.076-36.919-2.527 5.42-13.29 11.627-27.166 18.988-41.945z"/><path d="m316.596 145.766c-13.443 194.32-178.561 312.947-253.792 357.227-9.427 5.554-19.92-5.381-13.972-14.568 1.605-2.479 3.19-4.939 4.747-7.38 81.353-52.765 216.988-166.097 229.807-340.968z"/></g></g><g><g><path d="m324.915 150.015c-8.995-2.139-15.06-10.456-13.198-19.513l2.014-9.8c5.473-26.628-11.676-52.65-38.304-58.124-26.628-5.473-52.65 11.676-58.124 38.304l-2.014 9.8c-1.862 9.057-10.715 14.308-19.825 12.726-6.272-1.089-10.318 6.729-5.583 11.116 8.418 7.801 22.391 14.75 43.7 8.905 1.393-.382 2.733-.831 4.031-1.332 1.301 11.939 4.318 23.341 10.046 32.561 1.916 3.084 6.102 3.944 9.079 1.866 8.9-6.213 16.17-15.501 22.074-25.959.996.972 2.05 1.914 3.179 2.814 17.277 13.776 32.858 12.901 43.67 9.053 6.083-2.164 5.448-10.944-.745-12.417z" fill="#1ca56f"/><path d="m325.662 162.433c-4.808 1.706-10.553 2.828-16.97 2.342 1.777-3.438.203-8.317-4.278-9.387-8.998-2.139-15.061-10.456-13.196-19.507l2.015-9.802c5.471-26.631-11.676-52.652-38.307-58.124-3.341-.689-6.673-1.016-9.961-1.016-.619 0-1.237.009-1.856.035 6.797-3.483 14.434-5.409 22.353-5.409 3.288 0 6.62.327 9.97 1.017 26.622 5.471 43.769 31.492 38.298 58.123l-2.015 9.793c-1.856 9.06 4.207 17.377 13.205 19.516 6.186 1.477 6.823 10.254.742 12.419z" fill="#158f5e"/></g></g><g><path d="m256.082 80.447h22.815c2.924-28.504-1.625-53.558-4.689-66.241-1.169-4.839-6.125-7.732-10.908-6.355l-15.509 4.464c-5.348 1.539-7.957 7.647-5.277 12.524 11.934 21.719 13.588 44.467 13.568 55.608z" fill="#1ca56f"/></g></g></g><g><path d="m306.49 377.461c-36.523 19-77.491 33.569-122.044 43.471 10.928-10.409 21.789-21.543 32.364-33.44 2.752-3.096 2.473-7.836-.623-10.588s-7.836-2.473-10.588.623c-50.412 56.711-107.546 96.016-146.599 119.002-1.623.955-2.818.263-3.535-.486-.714-.746-1.352-1.964-.333-3.538 71.793-110.855 92.032-176.305 111.605-239.6 3.93-12.71 7.994-25.852 12.379-38.955 1.314-3.928-.804-8.178-4.732-9.492-3.927-1.314-8.177.804-9.492 4.732-4.439 13.266-8.529 26.493-12.485 39.283-12.669 40.97-25.624 82.859-53.089 137.752-17.584 10.199-36.737 20.577-56.968 30.857-7.537 3.831-11.262 11.923-9.269 20.137 1.986 8.182 8.955 13.657 17.364 13.657h.117c4.312-.026 8.68-.1 13.07-.216-6.486 10.751-13.493 21.961-21.09 33.691-4.596 7.097-3.755 15.966 2.093 22.069 3.521 3.675 8.12 5.579 12.814 5.579 3.107 0 6.256-.835 9.16-2.545 26.406-15.542 60.897-38.388 96.172-68.866 55.531-9.952 106.21-26.712 150.632-49.821 3.674-1.912 5.103-6.44 3.192-10.115-1.912-3.674-6.44-5.102-10.115-3.191zm-256.02 58.415c-1.864.042-2.569-1.187-2.814-2.195-.243-1.003-.183-2.378 1.488-3.227 12.948-6.579 25.467-13.202 37.43-19.796-4.309 7.948-8.923 16.167-13.87 24.682-7.464.307-14.93.492-22.234.536z"/><path d="m465.045 243.719c10.089-11.303 15.172-25.859 14.313-40.986s-7.557-29.013-18.862-39.102c-.02-.018-.04-.034-.06-.052 6.051-18.052 8.604-33.964 9.663-43.342.495-4.384-.839-8.84-3.66-12.227-2.859-3.433-6.889-5.493-11.346-5.803l-16.101-1.117c-4.964-.346-9.735 1.559-13.101 5.22-3.34 3.633-4.826 8.504-4.077 13.364 1.64 10.637 1.254 20.769-.002 29.575-15.843.229-30.699 6.938-41.403 18.93l-6.661 7.464c-3.29 3.686-8.93 3.815-13.12.301-4.788-4.017-11.526-4.381-16.767-.908-5.187 3.437-7.451 9.732-5.632 15.663.631 2.057 1.436 4.221 2.455 6.429-9.889 7.042-19.467 14.299-29.146 22.094 4.379-15.746 7.687-31.701 9.923-47.839 2.414-.502 4.661-1.155 6.714-1.886 5.846-2.081 9.546-7.653 9.209-13.866-.341-6.278-4.654-11.468-10.734-12.913-5.32-1.265-8.582-5.868-7.587-10.707l2.014-9.8c5.489-26.703-8.924-53.478-33.775-63.787-.33-19.901-3.512-36.496-5.804-45.981-1.036-4.288-3.816-8.019-7.626-10.235-3.862-2.246-8.353-2.802-12.647-1.566l-15.509 4.464c-4.777 1.375-8.612 4.798-10.521 9.39-1.895 4.557-1.623 9.642.746 13.953 5.419 9.861 8.565 19.96 10.365 28.967-18.592 6.658-32.312 22.325-36.348 41.955l-2.014 9.799c-.995 4.839-5.805 7.78-11.196 6.847-6.155-1.071-12.168 1.998-14.957 7.633-2.761 5.577-1.558 12.157 2.993 16.374 1.582 1.466 3.37 2.936 5.364 4.337-4.54 10.008-8.776 20.012-12.844 30.425-1.507 3.858.398 8.208 4.256 9.715.897.35 1.82.516 2.727.516 2.998 0 5.83-1.811 6.988-4.772 3.915-10.022 7.989-19.654 12.348-29.284 7.582 2.32 16.798 3.067 27.814.708 1.955 10.512 5.255 19.548 9.851 26.945 1.995 3.21 5.276 5.491 9.002 6.257.925.19 1.862.284 2.796.284 2.825 0 5.615-.857 7.945-2.483 7.14-4.985 13.738-11.986 19.68-20.875 9.066 6.424 17.716 9.382 25.514 10.285-9.191 62.642-35.379 122.478-77.896 177.945-2.519 3.287-1.897 7.995 1.39 10.515 1.361 1.043 2.965 1.548 4.557 1.548 2.253 0 4.481-1.011 5.958-2.938 27.653-36.075 48.638-73.982 62.812-113.314 15.689-13.52 30.456-25.155 45.979-36.228 5.392 5.816 12.99 11.092 23.706 14.583-3.587 10.073-5.268 19.544-5.008 28.249.113 3.778 1.806 7.398 4.644 9.931 2.838 2.534 6.629 3.807 10.393 3.49 8.677-.727 17.899-3.47 27.499-8.174 4.613 10.103 10.606 17.001 16.893 21.697-24.735 31.105-54.906 58.097-89.788 80.289-3.495 2.224-4.525 6.859-2.302 10.354 1.43 2.247 3.856 3.475 6.335 3.475 1.377 0 2.77-.379 4.018-1.173 37.141-23.629 69.161-52.523 95.266-85.897 2.343.779 4.617 1.344 6.762 1.743.869.162 1.734.241 2.59.241 5.153 0 9.91-2.855 12.336-7.609 2.857-5.601 1.732-12.255-2.8-16.558-3.966-3.765-4.476-9.383-1.186-13.069zm-180.995-98.52c-1.666-1.626-3.991-2.383-6.298-2.058-2.305.329-4.326 1.71-5.471 3.737-5.698 10.093-12.041 17.756-18.868 22.801-4.284-7.329-7.09-16.874-8.345-28.394-.252-2.314-1.565-4.381-3.554-5.592-1.988-1.211-4.426-1.431-6.599-.594-1.133.437-2.219.796-3.318 1.097-13.511 3.706-24.962 2.01-34.095-5.035 12.04.544 22.731-7.287 25.133-18.97l2.014-9.799c2.742-13.337 11.573-24.171 23.681-29.611.191 2.903.255 5.488.251 7.652-.007 4.142 3.344 7.506 7.486 7.514h.014c4.135 0 7.492-3.349 7.499-7.486.022-12.23-1.832-36.189-14.496-59.233-.168-.306-.182-.633-.042-.971.107-.258.337-.595.821-.734l15.508-4.464c.417-.121.751-.002.958.118.21.122.482.358.587.791 2.898 11.995 7.338 36.222 4.518 63.715-.422 4.12 2.575 7.803 6.696 8.226.26.027.518.04.774.04 3.798 0 7.056-2.875 7.452-6.735.216-2.106.389-4.191.529-6.257 14.943 8.911 23.125 26.594 19.498 44.237l-2.014 9.8c-2.402 11.682 4.336 23.105 15.612 27.344-11.169 2.873-22.362-.086-33.317-8.821-.887-.711-1.742-1.468-2.614-2.318zm169.805 88.532-6.661 7.464c-7.942 8.898-7.85 22.16-.225 31.486-11.104-3.124-19.297-11.302-24.385-24.354-.414-1.061-.773-2.146-1.1-3.318-.625-2.243-2.256-4.068-4.414-4.941-2.159-.873-4.6-.693-6.608.486-9.994 5.868-19.327 9.311-27.764 10.247-.026-8.489 2.339-18.152 7.037-28.746.944-2.128.846-4.574-.266-6.62-1.111-2.046-3.11-3.459-5.409-3.826-1.2-.191-2.319-.426-3.421-.717-13.544-3.578-22.597-10.794-26.958-21.471 10.131 6.521 23.316 5.11 31.259-3.789l6.661-7.464c7.09-7.943 16.655-12.743 27.003-13.743-.919 3.273-1.867 6.114-2.712 8.419-1.425 3.889.572 8.197 4.461 9.622 3.888 1.424 8.197-.572 9.622-4.461 4.208-11.483 10.671-34.628 6.664-60.616-.053-.345.045-.656.293-.925.189-.206.518-.446 1.022-.41l16.1 1.117c.433.03.706.255.859.439.155.187.33.502.28.943-1.385 12.262-5.509 36.547-17.572 61.41-1.808 3.726-.253 8.213 3.474 10.021 1.055.512 2.17.754 3.268.754 2.783 0 5.456-1.556 6.753-4.227 1.222-2.519 2.369-5.033 3.445-7.53 5.852 6.879 9.3 15.429 9.821 24.602.632 11.127-3.107 21.834-10.527 30.148z"/></g></g></svg>