<svg id="Layer_1" enable-background="new 0 0 512 512" height="512" viewBox="0 0 512 512" width="512" xmlns="http://www.w3.org/2000/svg"><g><g><path d="m301.105 496.995h-90.209c-13.761 0-26.697-5.359-36.429-15.09-9.734-9.734-15.092-22.675-15.086-36.439v-220.028c0-16.366 2.623-32.53 7.794-48.043l.116-.346c.27-.8.542-1.604.83-2.392 1.983-5.425 7.142-9.033 12.918-9.033h149.923c5.829 0 11.023 3.673 12.967 9.168 5.767 16.305 8.691 33.344 8.691 50.645v220.033c0 28.412-23.109 51.525-51.515 51.525z" fill="#fff"/></g><path d="m330.961 165.625h-74.961v331.37h45.105c28.406 0 51.515-23.113 51.515-51.524v-220.033c0-17.301-2.925-34.34-8.691-50.645-1.945-5.495-7.139-9.168-12.968-9.168z" fill="#f2f6fc"/><g><path d="m351.892 160.118c-.018-.05-.041-.098-.059-.147h.003c-5.585-15.784-13.516-30.597-23.581-44.024-8.772-11.708-15.556-24.663-20.164-38.51-4.619-13.854-6.961-28.289-6.961-42.913l-.01-20.03-90.25.006v20.03c0 29.159-9.633 58.072-27.123 81.413-10.057 13.417-17.981 28.213-23.565 43.978-.006.017-.014.032-.02.049-.314.859-.611 1.736-.905 2.608l-.127.377c-5.64 16.918-8.5 34.546-8.5 52.394v239.954c-.007 15.01 5.837 29.124 16.452 39.739 10.613 10.612 24.722 16.457 39.729 16.457h98.379c30.979 0 56.181-25.207 56.181-56.19v-239.959c-.001-18.868-3.19-37.45-9.479-55.232zm-20.522 295.192c0 14.441-11.744 26.19-26.181 26.19h-98.379c-6.993 0-13.568-2.724-18.515-7.67s-7.669-11.521-7.666-18.52v-239.96c0-11.946 1.564-23.771 4.648-35.23h141.44c3.09 11.473 4.651 23.282 4.651 35.23v239.96z" fill="#f2f6fc"/></g><g><path d="m300 30h-88c-8.284 0-15-6.716-15-15s6.716-15 15-15h88c8.284 0 15 6.716 15 15s-6.716 15-15 15z" fill="#dce1eb"/></g><path d="m351.833 160.471h.003c-5.585-15.784-13.516-30.597-23.581-44.024-8.772-11.708-15.556-24.663-20.164-38.51-4.619-13.854-6.961-28.289-6.961-42.913l-.01-20.03-45.12.002v165.624h70.719c3.09 11.473 4.651 23.282 4.651 35.23v239.96c0 14.441-11.744 26.19-26.181 26.19h-49.189v30h49.189c30.979 0 56.181-25.207 56.181-56.19v-239.96c0-18.868-3.189-37.45-9.479-55.232-.017-.05-.04-.097-.058-.147z" fill="#dce1eb"/><path d="m300 0h-44v30h44c8.284 0 15-6.716 15-15s-6.716-15-15-15z" fill="#cdd2e1"/></g></svg>