<svg id="Capa_1" enable-background="new 0 0 511.921 511.921" height="512" viewBox="0 0 511.921 511.921" width="512" xmlns="http://www.w3.org/2000/svg"><g><g><g><path d="m440.902 248.522-211.852-211.852c-7.784-7.784-20.972-5.219-25.272 4.915l-161.095 379.735c-3.634 8.567 5.003 17.204 13.57 13.57l38.761-16.444v40.148c0 1.305.104 2.587.303 3.836 1.838 11.51 11.811 18.306 23.839 18.306 13.333 0 14.142-8.809 14.142-22.142v-70.632l44.198-4.508 20-8.485v105.308c0 1.306.104 2.587.303 3.836 1.838 11.51 11.811 10.306 23.839 10.306 13.333 0 14.142-.809 14.142-14.142v-135.791l200.207-80.692c10.135-4.299 12.7-7.488 4.915-15.272z" fill="#ffe077"/><g fill="#ffc344"><path d="m440.902 248.522-211.852-211.852 191.852 191.852c7.784 7.784 5.219 20.973-4.915 25.272l-184.112 78.106c-3.695 1.567-6.095 5.192-6.095 9.206v119.172c0 13.333-10.809 24.142-24.142 24.142-1.306 0-2.586-.107-3.836-.307 1.838 11.51 11.808 20.307 23.836 20.307 13.333 0 24.142-10.809 24.142-24.142v-125.792l190.207-80.692c10.135-4.299 12.7-17.488 4.915-25.272z"/><path d="m170.543 357.92-41.151 17.457c-3.695 1.568-6.095 5.192-6.095 9.206v54.011c0 13.333-10.809 24.142-24.142 24.142-1.306 0-2.586-.107-3.836-.307 1.838 11.51 11.808 20.307 23.836 20.307 13.333 0 24.142-10.809 24.142-24.142v-60.632l34.198-14.508v-20.932c.001-3.581-3.654-6.001-6.952-4.602z"/></g><g fill="#ff8086"><circle cx="236.85" cy="171.009" r="28.549"/><circle cx="248.965" cy="274.387" r="28.549"/><circle cx="150.538" cy="327.035" r="28.549"/></g><g><path d="m417.125 288.03c-2.78-2.78-5.075-6.137-6.683-9.989-16.146-38.669-48.124-83.566-87.734-123.176-39.61-39.609-84.506-71.587-123.175-87.733-15.022-6.275-22.518-22.979-17.585-38.195.263-.812 1.562-1.62 1.897-2.421 6.607-15.824 23.792-21.296 39.616-14.689 46.534 19.43 96.376 54.345 142.159 100.128s80.698 95.625 100.127 142.159c6.608 15.825 1.136 33.009-14.688 39.616-.802.335-1.611 1.634-2.424 1.897-11.314 3.665-23.451.462-31.51-7.597z" fill="#f4aa73"/></g><path d="m467.746 254.112c-19.43-46.534-55.344-97.375-101.127-143.159-45.783-45.782-96.624-81.696-143.159-101.127-15.824-6.607-34.009.864-40.616 16.688-.335.802-.624 1.612-.888 2.424 6.802-2.2 14.39-2.083 21.504.887 46.534 19.43 97.376 55.345 143.159 101.128s81.698 96.624 101.127 143.159c2.971 7.115 3.088 14.705.887 21.508.813-.263 1.623-.556 2.425-.891 15.824-6.608 23.296-24.792 16.688-40.617z" fill="#e29a6c"/></g></g><g><path d="m236.85 134.96c-9.629 0-18.682 3.75-25.491 10.559s-10.559 15.861-10.559 25.49 3.75 18.682 10.559 25.49c6.809 6.809 15.862 10.559 25.491 10.559s18.682-3.75 25.49-10.559c6.81-6.809 10.56-15.861 10.56-25.49s-3.75-18.682-10.559-25.49c-6.809-6.809-15.862-10.559-25.491-10.559zm14.884 50.932c-3.976 3.977-9.262 6.166-14.884 6.166-5.623 0-10.908-2.189-14.884-6.166-3.976-3.975-6.165-9.261-6.165-14.883s2.189-10.908 6.165-14.884c3.976-3.977 9.262-6.166 14.884-6.166s10.908 2.189 14.884 6.166c3.976 3.976 6.165 9.262 6.165 14.884 0 5.623-2.19 10.908-6.165 14.883z"/><path d="m223.474 248.896c-14.055 14.055-14.055 36.926 0 50.981 7.028 7.027 16.259 10.541 25.491 10.541s18.463-3.514 25.491-10.541c0-.001 0-.001 0-.001 14.054-14.056 14.054-36.925-.001-50.982-14.055-14.053-36.925-14.052-50.981.002zm40.374 40.374c-8.206 8.208-21.561 8.207-29.768.001-8.207-8.208-8.207-21.562 0-29.769 4.104-4.104 9.494-6.155 14.884-6.155s10.781 2.052 14.884 6.154c8.208 8.209 8.208 21.562 0 29.769z"/><path d="m125.047 352.526c7.028 7.027 16.259 10.541 25.491 10.541 9.231 0 18.462-3.514 25.49-10.541 14.056-14.056 14.056-36.927 0-50.982-6.809-6.809-15.861-10.559-25.49-10.559s-18.682 3.75-25.491 10.559c-14.055 14.055-14.055 36.926 0 50.982zm10.607-40.375c3.976-3.977 9.262-6.166 14.884-6.166s10.908 2.189 14.884 6.166c3.976 3.976 6.165 9.262 6.165 14.884s-2.19 10.908-6.165 14.884c-8.207 8.208-21.561 8.207-29.768.001-8.207-8.208-8.207-21.562 0-29.769z"/><path d="m321.429 263.098c.426 0 .858-.036 1.293-.111 4.081-.71 6.814-4.593 6.105-8.674l-10.123-58.238c-.71-4.08-4.587-6.807-8.674-6.105-4.081.71-6.814 4.593-6.105 8.674l10.123 58.238c.634 3.645 3.801 6.216 7.381 6.216z"/><path d="m194.042 223.721-38.038 6.612c-4.081.71-6.814 4.593-6.105 8.674.634 3.646 3.801 6.217 7.38 6.217.426 0 .859-.036 1.293-.111l38.038-6.612c4.081-.71 6.814-4.593 6.105-8.674-.708-4.082-4.591-6.814-8.673-6.106z"/><path d="m474.667 251.222c-18.405-44.082-51.743-92.562-93.871-136.509-2.865-2.989-7.613-3.091-10.604-.224-2.99 2.866-3.09 7.614-.224 10.604 40.88 42.645 73.147 89.49 90.857 131.907 4.956 11.871-.813 25.859-12.656 30.806-8.856 3.698-18.959 1.702-25.74-5.081-2.168-2.167-3.872-4.716-5.065-7.576-16.51-39.54-49.078-85.315-89.352-125.589-40.276-40.275-86.052-72.843-125.588-89.35-11.983-5.007-17.662-18.826-12.659-30.808 4.946-11.844 18.934-17.613 30.806-12.657 40.29 16.823 85.012 47.084 125.931 85.209 3.029 2.825 7.775 2.656 10.6-.375 2.823-3.03 2.656-7.776-.375-10.6-42.797-39.874-87.881-70.33-130.377-88.074-19.404-8.101-42.341 1.356-50.427 20.72-6.346 15.198-2.188 32.197 9.131 42.895l-38.227 90.108c-1.618 3.813.162 8.216 3.975 9.833.956.405 1.949.598 2.926.598 2.919 0 5.696-1.716 6.908-4.573l37.285-87.887c37.514 15.951 80.976 47.06 119.485 85.569 38.508 38.507 69.618 81.97 85.569 119.484l-160.123 67.929c-2.771 1.176-4.571 3.895-4.571 6.904v125.792c0 9.177-7.466 16.643-16.642 16.643-9.177 0-16.643-7.466-16.643-16.643v-34.453c0-4.143-3.358-7.5-7.5-7.5s-7.5 3.357-7.5 7.5v34.453c0 17.448 14.195 31.643 31.643 31.643 17.447 0 31.642-14.194 31.642-31.643v-120.826l157.767-66.93c.257.272.509.547.774.813 7.399 7.398 17.209 11.315 27.221 11.315 5.011 0 10.073-.982 14.906-3 19.361-8.085 28.821-31.021 20.718-50.427z"/><path d="m189.996 413.138c0 4.143 3.358 7.5 7.5 7.5s7.5-3.357 7.5-7.5v-38.169c0-2.517-1.262-4.865-3.36-6.254-2.099-1.39-4.753-1.635-7.069-.65l-54.198 22.993c-2.771 1.176-4.571 3.895-4.571 6.904v60.631c0 9.177-7.466 16.642-16.643 16.642-9.176 0-16.642-7.466-16.642-16.642v-40.148c0-2.517-1.262-4.864-3.36-6.254s-4.753-1.635-7.069-.65l-38.761 16.443c-1.539.652-2.62-.101-3.128-.608-.508-.508-1.261-1.589-.608-3.128l98.193-231.462c1.618-3.813-.162-8.216-3.975-9.833-3.813-1.618-8.216.161-9.833 3.976l-98.193 231.461c-2.856 6.732-1.36 14.422 3.81 19.593s12.861 6.668 19.593 3.811l28.332-12.019v28.818c0 17.448 14.195 31.642 31.643 31.642 17.447 0 31.642-14.194 31.642-31.642v-55.666l39.198-16.629v26.84z"/></g></g></svg>